Coordinates
version=1
nRows=16
nColumns=40
inDegrees=yes

Units are S.I. units (second, meters, Newtons, ...)
If the header above contains a line with 'inDegrees', this indicates whether rotational values are in degrees (yes) or radians (no).

endheader
time	pelvis_tilt	pelvis_list	pelvis_rotation	pelvis_tx	pelvis_ty	pelvis_tz	hip_flexion_r	hip_adduction_r	hip_rotation_r	knee_angle_r	knee_angle_r_beta	ankle_angle_r	subtalar_angle_r	mtp_angle_r	hip_flexion_l	hip_adduction_l	hip_rotation_l	knee_angle_l	knee_angle_l_beta	ankle_angle_l	subtalar_angle_l	mtp_angle_l	lumbar_extension	lumbar_bending	lumbar_rotation	arm_flex_r	arm_add_r	arm_rot_r	elbow_flex_r	pro_sup_r	wrist_flex_r	wrist_dev_r	arm_flex_l	arm_add_l	arm_rot_l	elbow_flex_l	pro_sup_l	wrist_flex_l	wrist_dev_l
      0.81000000	     -5.45132250	      1.03247073	     -3.28700093	      0.20506840	      0.87392637	     -1.19364215	     16.56465348	    -25.77686590	    -28.43243277	     26.63119645	      0.46480206	     -2.19946674	      4.95566607	      0.00000000	     13.70637293	    -24.50625877	    -35.22939768	     24.94293076	      0.43533627	     -2.03546877	     14.11800905	      0.00000000	     -2.71046054	     -1.94053788	     -0.82393924	     44.99970319	    -15.00002704	     44.99970319	     75.00017585	     45.00000026	      0.00000000	      0.00000000	     44.99970319	    -15.00002704	     44.99970319	     75.00017585	     45.00000026	      0.00000000	      0.00000000
      0.81500000	     -5.47916329	      1.05289569	     -3.41126829	      0.20414274	      0.87259627	     -1.19334366	     17.08083201	    -25.91414235	    -27.98433494	     27.32179149	      0.47685522	     -1.90627023	      4.68945640	      0.00000000	     14.03734085	    -24.73108226	    -35.08368117	     25.59971714	      0.44679935	     -1.72389421	     13.88254997	      0.00000000	     -2.85690836	     -1.87650800	     -0.45636297	     44.99971707	    -15.00002494	     44.99971707	     75.00017585	     45.00000026	      0.00000000	      0.00000000	     44.99971707	    -15.00002494	     44.99971707	     75.00017585	     45.00000026	      0.00000000	      0.00000000
      0.82000000	     -5.44806795	      1.03237480	     -3.40714561	      0.20314953	      0.87140920	     -1.19326416	     17.43371709	    -26.04030051	    -27.72885226	     27.94522147	      0.48773612	     -1.72176402	      4.38690710	      0.00000000	     14.39220394	    -24.93468657	    -34.73552444	     26.23748477	      0.45793050	     -1.52982567	     13.35080523	      0.00000000	     -3.10031694	     -1.87572585	     -0.42920786	     44.99971947	    -15.00002455	     44.99971947	     75.00017585	     45.00000026	      0.00000000	      0.00000000	     44.99971947	    -15.00002455	     44.99971947	     75.00017585	     45.00000026	      0.00000000	      0.00000000
      0.82500000	     -5.52867057	      0.93098467	     -3.45600850	      0.20240908	      0.86977963	     -1.19310203	     17.93837113	    -26.12315556	    -27.55807186	     28.71476720	      0.50116723	     -1.24249479	      4.45770115	      0.00000000	     14.88165428	    -25.42886855	    -34.76471604	     27.17254229	      0.47425033	     -0.97342835	     13.76711096	      0.00000000	     -3.16032924	     -1.79935546	     -0.36662568	     44.99972785	    -15.00002318	     44.99972785	     75.00017585	     45.00000026	      0.00000000	      0.00000000	     44.99972785	    -15.00002318	     44.99972785	     75.00017585	     45.00000026	      0.00000000	      0.00000000
      0.83000000	     -5.52522524	      0.89400961	     -3.46129394	      0.20151016	      0.86842656	     -1.19302266	     18.32386410	    -26.25733822	    -27.36521796	     29.38274493	      0.51282564	     -0.95399877	      4.34983371	      0.00000000	     15.25636546	    -25.69751603	    -34.53966822	     27.85671503	      0.48619140	     -0.66257254	     13.60478187	      0.00000000	     -3.35845613	     -1.78576864	     -0.34625742	     44.99973462	    -15.00002209	     44.99973462	     75.00017585	     45.00000026	      0.00000000	      0.00000000	     44.99973462	    -15.00002209	     44.99973462	     75.00017585	     45.00000026	      0.00000000	      0.00000000
      0.83500000	     -5.54595837	      0.90158196	     -3.54379693	      0.20060465	      0.86696851	     -1.19276167	     18.81421843	    -26.41356995	    -27.08900888	     30.10272748	      0.52539171	     -0.64828081	      4.14012868	      0.00000000	     15.61098018	    -25.95404720	    -34.42070303	     28.54926977	      0.49827876	     -0.36226635	     13.42465779	      0.00000000	     -3.51994316	     -1.84562949	     -0.24356923	     44.99973696	    -15.00002173	     44.99973696	     75.00017585	     45.00000026	      0.00000000	      0.00000000	     44.99973696	    -15.00002173	     44.99973696	     75.00017585	     45.00000026	      0.00000000	      0.00000000
      0.84000000	     -5.55304786	      0.87361169	     -3.55560378	      0.19964006	      0.86554906	     -1.19267600	     19.23525538	    -26.54728969	    -26.84651310	     30.78304068	      0.53726541	     -0.39875322	      3.97236817	      0.00000000	     15.99523537	    -26.20763035	    -34.21819251	     29.21627865	      0.50992026	     -0.09459438	     13.18564824	      0.00000000	     -3.72228394	     -1.82745451	     -0.19111762	     44.99973891	    -15.00002143	     44.99973891	     75.00017585	     45.00000026	      0.00000000	      0.00000000	     44.99973891	    -15.00002143	     44.99973891	     75.00017585	     45.00000026	      0.00000000	      0.00000000
      0.84500000	     -5.71638239	      0.69450820	     -3.55075148	      0.19889031	      0.86363171	     -1.19262036	     19.77735404	    -26.56335099	    -26.78689039	     31.54331458	      0.55053470	      0.04221568	      4.06565780	      0.00000000	     16.64757535	    -26.81441103	    -34.20256764	     30.23152472	      0.52763964	      0.46686617	     13.67016410	      0.00000000	     -3.70940213	     -1.65085874	     -0.17396532	     44.99974761	    -15.00002007	     44.99974761	     75.00017585	     45.00000026	      0.00000000	      0.00000000	     44.99974761	    -15.00002007	     44.99974761	     75.00017585	     45.00000026	      0.00000000	      0.00000000
      0.85000000	     -5.68734756	      0.69208490	     -3.60037655	      0.19791458	      0.86228204	     -1.19243697	     20.16975118	    -26.68993243	    -26.49702100	     32.17623148	      0.56158118	      0.28127747	      3.83094425	      0.00000000	     16.93754430	    -27.00533927	    -33.98369980	     30.78570036	      0.53731183	      0.68780488	     13.31140100	      0.00000000	     -3.95494463	     -1.68563167	     -0.08283122	     44.99974942	    -15.00001980	     44.99974942	     75.00017585	     45.00000026	      0.00000000	      0.00000000	     44.99974942	    -15.00001980	     44.99974942	     75.00017585	     45.00000026	      0.00000000	      0.00000000
      0.85500000	     -5.85962451	      0.53491681	     -3.55374093	      0.19714396	      0.86029559	     -1.19243860	     20.70761115	    -26.75487581	    -26.49841410	     32.94456655	      0.57499116	      0.70415385	      3.89401675	      0.00000000	     17.64234218	    -27.56930167	    -33.89608680	     31.81527151	      0.55528124	      1.20857033	     13.72751985	      0.00000000	     -3.94076103	     -1.50570907	     -0.06482595	     44.99975747	    -15.00001857	     44.99975747	     75.00017585	     45.00000026	      0.00000000	      0.00000000	     44.99975747	    -15.00001857	     44.99975747	     75.00017585	     45.00000026	      0.00000000	      0.00000000
      0.86000000	     -5.81178024	      0.51348298	     -3.60472982	      0.19610463	      0.85901033	     -1.19225611	     21.06822937	    -26.84480812	    -26.19759464	     33.53284975	      0.58525864	      0.85720590	      3.67498699	      0.00000000	     17.89629700	    -27.74642100	    -33.62704886	     32.29442153	      0.56364399	      1.35758952	     13.28653001	      0.00000000	     -4.23190902	     -1.54551763	      0.00034598	     44.99975892	    -15.00001835	     44.99975892	     75.00017585	     45.00000026	      0.00000000	      0.00000000	     44.99975892	    -15.00001835	     44.99975892	     75.00017585	     45.00000026	      0.00000000	      0.00000000
      0.86500000	     -5.92770935	      0.55297962	     -3.73818779	      0.19531861	      0.85707331	     -1.19186745	     21.74408025	    -27.04839315	    -25.88684551	     34.39844711	      0.60036616	      1.39890510	      3.73175947	      0.00000000	     18.31780825	    -28.08221015	    -33.74665258	     33.07727441	      0.57730735	      1.82445350	     13.62436545	      0.00000000	     -4.25018492	     -1.59289631	      0.26832778	     44.99976106	    -15.00001803	     44.99976106	     75.00017585	     45.00000026	      0.00000000	      0.00000000	     44.99976106	    -15.00001803	     44.99976106	     75.00017585	     45.00000026	      0.00000000	      0.00000000
      0.87000000	     -6.10258844	      0.37245657	     -3.67901690	      0.19449871	      0.85507297	     -1.19193085	     22.26334671	    -27.06512729	    -25.83950958	     35.11668779	      0.61290182	      1.72777146	      3.65178262	      0.00000000	     19.03241378	    -28.62166500	    -33.55031814	     34.02514611	      0.59385083	      2.25756071	     13.83836686	      0.00000000	     -4.25364300	     -1.37904841	      0.24145517	     44.99976892	    -15.00001685	     44.99976892	     75.00017585	     45.00000026	      0.00000000	      0.00000000	     44.99976892	    -15.00001685	     44.99976892	     75.00017585	     45.00000026	      0.00000000	      0.00000000
      0.87500000	     -6.07403786	      0.34686833	     -3.74429889	      0.19359320	      0.85356383	     -1.19173705	     22.65999180	    -27.17258068	    -25.56452025	     35.77262382	      0.62435007	      2.03984084	      3.57875919	      0.00000000	     19.31172185	    -28.86982262	    -33.38939635	     34.60983233	      0.60405553	      2.53629876	     13.64012627	      0.00000000	     -4.49927752	     -1.34920621	      0.42487049	     44.99977812	    -15.00001547	     44.99977812	     75.00017585	     45.00000026	      0.00000000	      0.00000000	     44.99977812	    -15.00001547	     44.99977812	     75.00017585	     45.00000026	      0.00000000	      0.00000000
      0.88000000	     -6.26391101	      0.33527474	     -3.73265609	      0.19268634	      0.85156605	     -1.19165536	     23.30491641	    -27.33075270	    -25.34276629	     36.52116622	      0.63741460	      2.33450379	      3.40904013	      0.00000000	     19.93683192	    -29.15390969	    -33.18496762	     35.33665818	      0.61674103	      2.89721765	     13.78005225	      0.00000000	     -4.49448220	     -1.31626418	      0.49543303	     44.99978516	    -15.00001446	     44.99978516	     75.00017585	     45.00000026	      0.00000000	      0.00000000	     44.99978516	    -15.00001446	     44.99978516	     75.00017585	     45.00000026	      0.00000000	      0.00000000
      0.88500000	     -6.31084010	      0.27065169	     -3.73046256	      0.19191706	      0.84968935	     -1.19157260	     23.75872832	    -27.46965847	    -25.22199105	     37.27775729	      0.65061960	      2.73469898	      3.42463822	      0.00000000	     20.41013856	    -29.52464782	    -33.03421098	     36.14021204	      0.63076569	      3.30996864	     13.84406602	      0.00000000	     -4.60734767	     -1.26684463	      0.54819598	     44.99979222	    -15.00001345	     44.99979222	     75.00017585	     45.00000026	      0.00000000	      0.00000000	     44.99979222	    -15.00001345	     44.99979222	     75.00017585	     45.00000026	      0.00000000	      0.00000000
